<svg width="256" height="256" viewBox="0 0 256 256" fill="none" xmlns="http://www.w3.org/2000/svg">
<g clip-path="url(#clip0_2_137)">
<rect width="256" height="256" fill="#07955F"/>
<path fill-rule="evenodd" clip-rule="evenodd" d="M256 48.5314C247.812 56.7248 236.497 61.7931 223.999 61.7931C199.013 61.7931 178.757 41.5378 178.757 16.5517C178.757 10.7097 179.865 5.12632 181.881 0L256 0V48.5314ZM256 140.011C244.105 136.503 231.514 134.621 218.483 134.621C149.068 134.621 92.1293 188.033 86.5221 256H126.443C131.898 210.01 171.025 174.345 218.483 174.345C231.836 174.345 244.53 177.169 256 182.252V140.011ZM0 179.96C35.2129 163.378 59.586 127.57 59.586 86.069C59.586 50.2277 41.4073 18.6323 13.7671 0L0 0V179.96Z" fill="#10A46B"/>
<path fill-rule="evenodd" clip-rule="evenodd" d="M86.6645 59.7472C88.083 59.3095 88.9542 59.0437 89.5893 58.9098C89.6306 58.9011 89.6689 58.8934 89.7044 58.8866C89.6977 58.9221 89.6901 58.9604 89.6814 59.0016C89.5478 59.6388 89.2826 60.5127 88.8461 61.9354L76.9443 100.728C76.394 102.522 76.0366 103.678 75.7148 104.472C75.6891 104.535 75.6648 104.593 75.642 104.646C75.6107 104.597 75.5771 104.544 75.5412 104.485C75.0935 103.756 74.5512 102.675 73.7145 100.996L66.4199 86.3648L79.2608 73.4867C80.397 72.3471 80.397 70.4996 79.2608 69.3601C78.1245 68.2205 76.2823 68.2205 75.1461 69.3601L62.3052 82.2382L47.7162 74.9226C46.0423 74.0832 44.9643 73.5397 44.2363 73.0908C44.178 73.0548 44.1251 73.0212 44.077 72.99C44.1296 72.967 44.1875 72.9426 44.2511 72.9167C45.0427 72.5939 46.1951 72.2355 47.9838 71.6835L86.6645 59.7472ZM91.8211 53.2962C90.5648 52.8337 89.319 53.0033 88.392 53.1987C87.4641 53.3944 86.3342 53.7431 85.0758 54.1316L85.0758 54.1316L46.2725 66.1057L46.1427 66.1457C44.5189 66.6467 43.1172 67.0792 42.0594 67.5106C41.0725 67.913 39.7024 68.563 38.8843 69.876C37.8875 71.476 37.7228 73.4615 38.4442 75.2053C39.0359 76.6355 40.281 77.5025 41.1884 78.062C42.1608 78.6617 43.4721 79.3192 44.9911 80.0808L60.1906 87.7026C60.4675 87.8415 60.6039 87.9103 60.7019 87.9641L60.7071 87.967L60.7115 87.9749C60.7648 88.0724 60.8335 88.209 60.9714 88.4857L68.5642 103.715L68.5643 103.716C69.3269 105.245 69.9849 106.565 70.5852 107.544C71.1438 108.454 72.0086 109.702 73.4339 110.295C75.1721 111.018 77.1509 110.854 78.7466 109.854C80.0559 109.034 80.704 107.66 81.1052 106.67C81.5353 105.609 81.9665 104.203 82.4661 102.575L82.4661 102.575L94.4464 63.5258L94.4465 63.5256C94.8334 62.2649 95.1808 61.1328 95.3758 60.203C95.5708 59.2735 95.7402 58.0237 95.2789 56.7634C94.6896 55.1535 93.4241 53.8864 91.8211 53.2962ZM103.636 81.9643C103.027 81.9643 102.534 82.4593 102.534 83.0699V130.17C102.534 130.781 103.027 131.276 103.636 131.276H111.64C112.249 131.276 112.742 130.781 112.742 130.17V102.691L123.582 121.632C123.779 121.976 124.143 122.187 124.538 122.187H129.764C130.159 122.187 130.523 121.976 130.72 121.632L141.626 102.576V130.17C141.626 130.781 142.12 131.276 142.729 131.276H150.732C151.341 131.276 151.835 130.781 151.835 130.17V83.0699C151.835 82.4593 151.341 81.9643 150.732 81.9643H142.729C142.327 81.9643 141.957 82.1836 141.763 82.5366L127.184 109.092L112.606 82.5366C112.412 82.1836 112.042 81.9643 111.64 81.9643H103.636ZM161.253 82.0306C157.866 82.0306 155.189 84.7811 155.189 88.0453C155.189 91.3662 157.856 94.1263 161.253 94.1263C164.63 94.1263 167.382 91.3853 167.382 88.0453C167.382 84.7621 164.621 82.0306 161.253 82.0306ZM205.807 88.0453C205.807 84.7811 208.483 82.0306 211.87 82.0306C215.238 82.0306 218 84.7621 218 88.0453C218 91.3853 215.248 94.1263 211.87 94.1263C208.474 94.1263 205.807 91.3662 205.807 88.0453ZM190.123 96.227C186.468 96.227 183.016 97.43 180.311 99.7049V97.797C180.311 97.1864 179.818 96.6914 179.209 96.6914H171.801C171.192 96.6914 170.698 97.1864 170.698 97.797V130.17C170.698 130.781 171.192 131.276 171.801 131.276H179.209C179.818 131.276 180.311 130.781 180.311 130.17V113.917C180.311 110.915 181.09 108.731 182.322 107.313C183.539 105.913 185.301 105.138 187.543 105.138C189.589 105.138 190.967 105.64 191.874 106.701C192.819 107.805 193.453 109.738 193.453 113.055V130.17C193.453 130.781 193.946 131.276 194.555 131.276H201.963C202.572 131.276 203.066 130.781 203.066 130.17V111.131C203.066 106.089 201.835 102.326 199.503 99.8207C197.161 97.3027 193.869 96.227 190.123 96.227ZM156.446 97.797C156.446 97.1864 156.94 96.6914 157.549 96.6914H164.957C165.566 96.6914 166.059 97.1864 166.059 97.797V130.17C166.059 130.781 165.566 131.276 164.957 131.276H157.549C156.94 131.276 156.446 130.781 156.446 130.17V97.797ZM208.166 96.6914C207.557 96.6914 207.064 97.1864 207.064 97.797V130.17C207.064 130.781 207.557 131.276 208.166 131.276H215.575C216.183 131.276 216.677 130.781 216.677 130.17V97.797C216.677 97.1864 216.183 96.6914 215.575 96.6914H208.166ZM48.2563 121.581C48.2563 120.97 48.7499 120.475 49.3587 120.475H72.0249C79.7342 120.475 85.4122 122.709 89.1571 126.607C92.8937 130.497 94.5589 135.891 94.5589 141.924C94.5589 149.003 92.1632 154.359 87.8881 157.922C83.6452 161.458 77.6948 163.109 70.7902 163.109H61.1328V184.381C61.1328 184.992 60.6392 185.487 60.0304 185.487H49.3587C48.7499 185.487 48.2563 184.992 48.2563 184.381V121.581ZM61.1328 132.239V151.256H69.7319C73.923 151.256 76.8002 150.195 78.6189 148.554C80.4229 146.927 81.3296 144.6 81.3296 141.748C81.3296 138.675 80.3571 136.347 78.6179 134.774C76.8629 133.187 74.1826 132.239 70.5256 132.239H61.1328ZM115.604 139.492C103.109 139.492 93.7754 149.433 93.7754 162.976C93.7754 169.906 96.0904 175.72 100.027 179.809C103.964 183.898 109.461 186.194 115.692 186.194C120.942 186.194 125.234 184.507 128.436 181.372V184.381C128.436 184.992 128.93 185.487 129.539 185.487H138.976C139.584 185.487 140.078 184.992 140.078 184.381V141.217C140.078 140.606 139.584 140.111 138.976 140.111H129.098C128.489 140.111 127.995 140.606 127.995 141.217V143.925C124.751 140.987 120.4 139.492 115.604 139.492ZM106.035 163.064C106.035 159.155 107.316 156.056 109.324 153.943C111.333 151.829 114.126 150.637 117.28 150.637C123.624 150.637 128.436 155.872 128.436 163.064C128.436 170.258 123.353 174.961 117.28 174.961C113.901 174.961 111.111 173.722 109.161 171.658C107.207 169.588 106.035 166.621 106.035 163.064ZM143.11 140.61C143.314 140.299 143.66 140.111 144.032 140.111H154.615C155.063 140.111 155.466 140.382 155.635 140.798L166.489 167.361L176.604 140.822C176.768 140.394 177.177 140.111 177.634 140.111H187.777C188.141 140.111 188.482 140.292 188.687 140.593C188.892 140.895 188.936 141.279 188.803 141.619L165.167 202.297C165.002 202.721 164.594 203 164.14 203H153.91C153.545 203 153.204 202.819 152.999 202.518C152.794 202.216 152.75 201.832 152.883 201.492L160.478 182.015L143.02 141.657C142.872 141.315 142.906 140.922 143.11 140.61Z" fill="white"/>
</g>
<defs>
<clipPath id="clip0_2_137">
<rect width="256" height="256" fill="white"/>
</clipPath>
</defs>
</svg>
